Coordinates
version=1
nRows=12
nColumns=24
inDegrees=yes

Units are S.I. units (second, meters, Newtons, ...)
Angles are in degrees.

endheader
time	pelvis_tilt	pelvis_list	pelvis_rotation	pelvis_tx	pelvis_ty	pelvis_tz	hip_flexion_r	hip_adduction_r	hip_rotation_r	knee_angle_r	ankle_angle_r	subtalar_angle_r	mtp_angle_r	hip_flexion_l	hip_adduction_l	hip_rotation_l	knee_angle_l	ankle_angle_l	subtalar_angle_l	mtp_angle_l	lumbar_extension	lumbar_bending	lumbar_rotation
      3.75000000	    -18.71629908	      6.86813806	     -1.93276938	     -1.54196454	     -0.01629940	     -0.37477798	     35.72597980	     -5.91659872	     -0.21177707	    -62.24984962	     -3.29149808	    -12.14106185	     29.25179841	     25.11563649	      8.02508591	     -9.79677440	    -18.27365140	      5.38501960	     -1.43954202	      6.35978827	     21.55908780	     -8.16421069	     -9.25394088
      3.75500000	    -18.68272298	      6.52495651	     -1.73924386	     -1.53567194	     -0.01551313	     -0.37531468	     36.28428143	     -5.70052174	     -0.61999899	    -61.59102973	     -2.83949013	    -12.44962526	     28.51970582	     24.32338649	      7.87851788	     -9.39047665	    -17.76266408	      5.53236724	     -1.33319055	      6.17863003	     21.47149144	     -7.89517203	     -9.64589425
      3.76000000	    -18.65430522	      6.20557515	     -1.64034391	     -1.52938791	     -0.01481328	     -0.37575596	     36.85535607	     -5.45345680	     -0.92642588	    -60.90691971	     -2.38312285	    -12.48017706	     27.04742219	     23.54293941	      7.71216828	     -9.09823548	    -17.25536656	      5.68184686	     -1.28030487	      5.80994603	     21.40835656	     -7.60335958	     -9.88435327
      3.76500000	    -18.73608011	      5.84727296	     -1.51088258	     -1.52317607	     -0.01426991	     -0.37618796	     37.51518603	     -5.17827938	     -1.25030894	    -60.08974309	     -2.01498162	    -12.67818263	     26.82982603	     22.91286655	      7.48701722	     -8.85873442	    -16.78389417	      5.80761130	     -1.18677921	      5.76096264	     21.45002266	     -7.28445650	    -10.18570531
      3.77000000	    -18.75498894	      5.50031971	     -1.37885730	     -1.51696824	     -0.01374318	     -0.37660952	     38.08524472	     -4.93083571	     -1.58311045	    -59.21368656	     -1.66007999	    -12.80940056	     26.52369015	     22.20888934	      7.27794163	     -8.57062110	    -16.29704712	      5.93520862	     -1.13111172	      5.66692370	     21.41941400	     -6.98298943	    -10.48592794
      3.77500000	    -18.68410154	      5.21087938	     -1.27970789	     -1.51074157	     -0.01324011	     -0.37696339	     38.56176481	     -4.72524376	     -1.86845172	    -58.33773262	     -1.30754830	    -12.77838514	     25.52870735	     21.39163127	      7.12118046	     -8.25843745	    -15.78396435	      6.07819714	     -1.10523380	      5.38265967	     21.30401934	     -6.73333733	    -10.72080887
      3.78000000	    -18.77669170	      4.88871865	     -1.17015301	     -1.50459873	     -0.01296401	     -0.37731849	     39.18923828	     -4.48645144	     -2.15472355	    -57.35032577	     -0.99859224	    -12.79606273	     25.33306728	     20.79753652	      6.90238386	     -8.07738991	    -15.33276320	      6.22581741	     -1.00980285	      5.33926519	     21.34547640	     -6.44626434	    -10.97641647
      3.78500000	    -18.84960486	      4.62708888	     -1.12985326	     -1.49843845	     -0.01279691	     -0.37755846	     39.80319040	     -4.25191330	     -2.32646204	    -56.33520214	     -0.69861476	    -12.74960974	     25.17407979	     20.16186581	      6.72084584	     -7.89674041	    -14.84210185	      6.39222293	     -0.95237974	      5.28871809	     21.38140461	     -6.19294922	    -11.11759833
      3.79000000	    -18.78681441	      4.29262474	     -0.97091735	     -1.49228748	     -0.01248855	     -0.37789364	     40.19615078	     -4.05009155	     -2.68599603	    -55.22371516	     -0.42902503	    -12.72398126	     24.76430706	     19.39030182	      6.50342308	     -7.61043320	    -14.37370808	      6.53935534	     -0.86401824	      5.17897930	     21.24424051	     -5.93703393	    -11.45734827
      3.79500000	    -18.87671297	      4.06005750	     -0.96509050	     -1.48617189	     -0.01251238	     -0.37807466	     40.80177287	     -3.82374778	     -2.81559003	    -54.11060718	     -0.15271316	    -12.58425759	     24.58424006	     18.78906922	      6.32934142	     -7.52088505	    -13.89838980	      6.69979794	     -0.83475649	      5.11745653	     21.29212517	     -5.69963319	    -11.54946396
      3.80000000	    -18.82388340	      3.74288970	     -0.83228414	     -1.48001172	     -0.01236140	     -0.37836579	     41.16202135	     -3.62323289	     -3.13766730	    -52.88409560	      0.09462448	    -12.46279723	     24.15757082	     18.04651790	      6.10547484	     -7.32311858	    -13.45933085	      6.85155908	     -0.73860040	      5.01260771	     21.16803572	     -5.44362076	    -11.83925743
      3.80500000	    -18.91181033	      3.54066548	     -0.83560873	     -1.47391025	     -0.01256287	     -0.37846235	     41.72967849	     -3.41071756	     -3.23022071	    -51.67994616	      0.33546307	    -12.28652513	     23.94370372	     17.44153301	      5.94830279	     -7.21731843	    -12.98108459	      7.04557049	     -0.68807917	      4.95485238	     21.20690103	     -5.24068135	    -11.92361185
